# xmcd CD database file
#
# Track frame offsets:
#	150
#	18380
#	49859
#	76832
#	95303
#	116020
#	139554
#	177601
#	186670
#	200507
#	213820
#	244899
#
# Disc length: 3641 seconds
#
# Revision: 1
# Processed by: cddbd v1.5.2PL0 Copyright (c) Steve Scherf et al.
# Submitted via: CDex 1.78
#
DISCID=a70e370c
DTITLE=Clark Terry - Seven Classic Albums CD1
DYEAR=1957
DGENRE=Jazz
TTITLE0=Donna Lee
TTITLE1=Boardwalk
TTITLE2=Boomerang
TTITLE3=Digits
TTITLE4=Serenade To A Bus Seat
TTITLE5=Stardust
TTITLE6=Cruising
TTITLE7=That Old Black Magic
TTITLE8=C-Jam Blues
TTITLE9=In A Sentimental Mood
TTITLE10=Cottontail
TTITLE11=Just Squeeze Me (But Don't Tease Me)
EXTD=YEAR: 1957
EXTT0=
EXTT1=
EXTT2=
EXTT3=
EXTT4=
EXTT5=
EXTT6=
EXTT7=
EXTT8=
EXTT9=
EXTT10=
EXTT11=
PLAYORDER=
